# xmcd
#
# Track frame offsets: 
#        150
#        18580
#        36165
#        50262
#        64492
#        84060
#        102007
#        120085
#        137114
#        152950
#        166402
#        187097
#
# Disc length: 2758 seconds
#
# Revision: 0
# Processed by: cddbd v1.5PL3 Copyright (c) Steve Scherf et al.
# Submitted via: ExactAudioCopy v0.95a3
#
DISCID=970ac40c
DTITLE=David Lee Murphy - Tryin' To Get There
DYEAR=2004
DGENRE=Country
TTITLE0=I Like It Already
TTITLE1=Same Ol' Same Ol'
TTITLE2=Loco
TTITLE3=Own Little World
TTITLE4=Tryin' To Get There
TTITLE5=Inspiration
TTITLE6=Ghost In The Jukebox
TTITLE7=She Always Said
TTITLE8=Mama's Last
TTITLE9=Beggin' For Affection
TTITLE10=Might Be Me
TTITLE11=Killin' The Pain
EXTD=
EXTT0=
EXTT1=
EXTT2=
EXTT3=
EXTT4=
EXTT5=
EXTT6=
EXTT7=
EXTT8=
EXTT9=
EXTT10=
EXTT11=
PLAYORDER=
